<?xml version="1.0" encoding="UTF-8"?>
<svg id="Layer_1" data-name="Layer 1" xmlns="http://www.w3.org/2000/svg" viewBox="0 0 540.4 363.6">
  <defs>
    <style>
      .cls-1 {
        fill: none;
        stroke: #2a5da8;
        stroke-miterlimit: 10;
        stroke-width: 10px;
      }
    </style>
  </defs>
  <path class="cls-1" d="M116.4,170.3c-2.4-2.2-4.7-4-6.6-6.1-4.7-5.1-7.3-11.1-8.6-17.9-1.9-9.8-.9-19.4,2.1-28.8,2.5-8,6.6-15.2,11.1-22.2,9.3-14.9,21.7-26.8,35.5-37.4,7.5-5.8,15.4-11,23.9-15.3,6.4-3.2,12.6-6.6,19.1-9.6,5.2-2.5,10.7-4.5,16.1-6.7,3.5-1.5,7-3,10.6-4.3,3.3-1.2,6.6-2.4,9.9-3.5,3.8-1.2,7.6-2.5,11.5-3.4,13.1-3,26.3-6,39.8-7.1,10.9-.8,21.7-2,32.6-2.8,3.3-.2,6.7,0,10,0,3.7,0,7.4,0,11.1.2,5.4.3,10.8,1,16.2,1.6,3.3.4,6.6.7,9.8,1.4,9.6,2.1,19.3,3.9,28.8,6.6,21.2,6.1,40.5,16.2,57.2,30.8,8.1,7.1,15,15.4,20.6,24.6,4.6,7.5,7.9,15.7,10.2,24.3,2.3,8.3,3.8,16.6,3.6,25.1-.2,7.9-.5,15.9-2,23.6-1.6,8.7-4,17.3-7,25.7-3.2,8.9-7,17.6-11.2,26.1-6.4,13.1-14.5,25-24.4,35.7-2.5,2.7-4.9,5.5-7.6,7.9-2.6,2.3-5.4,4.4-8.3,6.3-.9.6-2.3.2-3.5.3,0-1.2-.2-2.6.3-3.7,3.9-7.9,8.1-15.7,11.9-23.7,3.4-7.1,6.4-14.4,9.5-21.7,3.3-7.9,6.6-15.8,9.5-23.8,2.8-7.6,5.3-15.4,7.3-23.3,1.7-6.6,2.3-13.4,3.4-20.1,1.5-8.7.6-17.4-.6-26.1-1.2-8.8-4.3-17-8.7-24.8-4.1-7.2-8.8-13.9-14.9-19.6-8.9-8.3-18.6-15.2-29.6-20.5-8.6-4.2-17.5-7.5-26.8-10-9.5-2.5-19-4.8-28.6-6.8-4.8-1-9.9-.9-14.9-1.4-12.7-1.3-25.4,0-38,1-15.1,1.3-30.1,3.9-44.7,7.9-8,2.2-15.8,5.1-23.6,7.9-5.9,2.1-11.9,4.3-17.6,6.9-6.7,3-13.3,6.3-19.8,9.7-6.4,3.4-13,6.7-18.9,10.9-8.2,5.8-16,12.1-23.7,18.5-8.9,7.5-16.1,16.6-22,26.6-6.5,10.9-11,22.2-8.2,35.3.5,2.4,1.3,4.4,2.4,6.3,3.1,5.1,7.6,7.5,9.1,8.2,5.6,2.8,11.1,2.2,16.1,1.7,1.7-.2,3.4-.5,6.8-1.2,8.4-1.7,14.8-3.7,17.9-4.6,1.7-.5,4.8-1.5,13.2-4.7,20.5-7.6,25.8-10.5,33-8.3,1.9.6,6,1.8,6.4,4.1.9,6.1-24.1,15.2-27.6,16.5-3.7,1.3-7.7,2.7-7.7,2.7-3.2,1-5.7,1.8-8.3,2.6-5.6,1.7-6,1.7-9.9,2.9-2.4.7-3,1-5.3,1.7-2.9.9-4.1,1.2-6.5,1.9-.2,0-4.6,1.3-9.4,2.9-3.8,1.3-6.6,2.4-9.2,3.4-12,4.7-18,7.1-21.4,8.7-6,2.9-10.1,5.2-16.4,9.4-9,6-17.9,12.3-26.6,18.8-9.5,7.1-17.6,15.7-24.6,25.3-4.8,6.5-9,13.4-11.6,21.1-3.4,10.1-3.2,20.3.8,30.1,4.4,10.6,12.1,18.4,22.3,23.7,7.6,3.9,15.5,2.7,23-.4,6.6-2.8,13.1-6.1,19.2-9.8,4.6-2.7,6-4.1,14.7-10.6,19.9-14.7,21.7-15.2,28.6-21.6,3.4-3.2,7.8-7.2,12.7-13.1,2.6-3.1,3.8-4.8,8-9.8,3.9-4.6,7-8,8-9.1,4.2-4.5,8.7-9.4,14.9-14.9,3.5-3,8.3-7,14.5-11.3,2.5-1.4,5.8-3.4,9.8-5.8,11.8-7.2,13.5-9.1,14.2-11.6,1.3-5.1-3-8.2-1.1-10.5,2.9-3.6,14.6,2.1,16.4,3.1,1.2.7,2,1.6,2,1.6.8.9,1.3,1.9,1.6,2.6.2.8.4,1.9.3,3.3-.3,2.4-1.5,4.1-2.6,5.4-4,4.9-6.8,6.9-6.8,6.9-8.6,6-22.2,18.9-24.2,20.7-7.9,7.2-14.6,15.5-19.6,25-3,5.7-5.8,11.7-7.5,17.9-2.2,8.2,1.4,15.2,6.8,21.4,9.3,10.5,20.2,19.1,32.7,25.4,8.3,4.1,17.2,6,26.4,4.2,10.1-2.1,19-6.7,25.5-14.9,1-1.2,1.3-3.2,1.2-4.8,0-2.8-.6-5.6-.8-8.4-.9-10.2,2.1-19.5,7.3-28,6.9-11.5,16.1-20.9,27.2-28.5,7.5-5.2,15.9-6.1,22.5-.7,0,0,7.4,6,6,23.7,0,.5-.1,1.3-.7,2.1-1,1.2-2.6,1.4-2.9,1.4-1.4.1-2.4-.4-3.1-.8-1.6-.9-1.9-1.7-2.6-2.1-2.4-1.4-7.8,3.2-11.3,7-1.6,1.8-5.3,6.1-8.1,12.8-2.3,5.6-3.1,10.5-3.3,13.2-.5,5.3,0,9.2.3,10.7.8,4.9,2.2,7.5,2.6,8.3.4.8,1.1,2.4,2.7,3.8,6.9,6.4,15.1,7.6,23.9,6.4,6.8-.9,13.6-2,19.6-5.4,4.6-2.7,9.2-5.8,12.9-9.6,5.5-5.8,10.5-12.2,14.9-18.9,1.9-2.8,1.8-7,2.7-10.5,1.9-7.6,5.6-14.3,12.4-18.3,4.2-2.4,9.3-2.9,13.7.4,4.8,3.6,5.9,8.7,5,14.3-1.1,6.4-2.5,12.7-5.2,18.6-.6,1.4-.4,3.8.4,5.2,5.7,10,13.9,17.2,24.4,21.9,8.8,4,18,6.1,27.6,5,7.3-.9,14.1-3.5,20.5-7.3,5.5-3.3,10.6-7.1,13.8-12.7,2.7-4.7,5.1-9.8,6.5-15,3.2-12.1,2.5-24.4-.7-36.5-1.7-6.6-3-13.3-5-19.8-1.9-6-3.7-12.1-7.6-17.3-1.1-1.4-2.3-2.6-3.6-3.8-2.1-2-2.6-4.5-1.8-7.1.8-2.5,2.7-4.3,5.4-5.1,6.1-1.8,11,.5,15.1,4.7,5.3,5.3,8.5,11.8,11,18.8,2.8,7.6,5.7,15.1,7.7,22.9,2.1,8.1,3.7,16.5,4.6,24.8.9,8.1.7,16.3-1,24.4-1.8,8.2-4.5,16-9.1,23.1-6.2,9.7-14.4,17.2-24.4,23.1-12.5,7.3-26,10.2-40.2,9.7-8-.3-15.7-2.3-23.3-5.1-11.3-4.2-21-10.6-29.5-19.1-2.1-2-4-4.3-5.8-6.5-1.3-1.7-2.4-1.4-3.7-.1-2.6,2.7-5,5.6-7.8,8.1-6,5.5-12.7,10.1-20.2,13.5-10.9,5-22.3,7.2-34.2,7.4-13.7.2-25.7-4.6-35.9-13.7-3-2.6-3.7-2.6-6.8,0-5.8,4.9-12.2,8.7-19.3,11.7-7.6,3.1-15.4,5-23.5,5.5-7,.4-13.9-.8-20.7-2.6-8.8-2.4-16.9-6.4-24.6-11.2-12.2-7.7-23.4-16.7-32.7-28-4.5-5.4-8.4-11.1-10.8-17.8,0-.2-.1-.3-.2-.5-2-4.1-2.5-4.1-5.6-1-8.5,8.6-16.7,17.4-25.6,25.6-5.6,5.2-11.9,9.8-18.4,14-5.6,3.6-11.6,6.9-17.8,9.3-8.1,3.2-16.5,5-25.4,4.2-16.6-1.4-29.6-9.7-41.1-20.9-5.6-5.4-10.3-11.6-14-18.4-6.3-11.8-9.6-24.5-8.3-38,1.2-12,5.6-23,12.2-33.1,7.4-11.4,16.8-21.1,27.2-29.7,8.3-6.8,17.1-13.1,26.1-19.2,5.2-3.5,11-6.2,16.6-9,6.7-3.3,12.3-5.6,16.6-7.4,4.9-2,9.2-3.7,12.4-4.8Z"/>
  <path class="cls-1" d="M88.4,272.4c0,6.9-2.3,12.5-7.7,16.1-7.7,5.2-17.8,4-23.5-3.5-4.3-5.7-4.6-11.9-1.4-18.1,3.2-6.2,8.5-10.1,15.5-10.3,8.2-.3,18.1,5.4,17.1,15.7Z"/>
  <path class="cls-1" d="M319.1,80.5c-3.2-.5-7.1-1.3-10-4.3-4.3-4.4-3.8-11.6,1-16,5.6-5.2,17.4-5.5,22.4,3,2.4,4.1,1,10.9-3,14.3-2.8,2.4-6,3-10.3,3.1Z"/>
</svg>